<svg id="Ñëîé_2" data-name="Ñëîé 2" xmlns="http://www.w3.org/2000/svg" width="107.9" height="133.45" viewBox="0 0 107.9 133.45"><defs><style>.cls-1{fill:#727272;}</style></defs><title>apple</title><path class="cls-1" d="M95.2,46.14C84,38.66,69,38,56.87,43.29c-2.75-10.06-3.51-22.84,6.81-29,9.2-5.49,21.7-6.45,32-8.84.16,6.82.17,13.84-1.82,20.44a29.14,29.14,0,0,1-4,8.26c-1.12,1.62-3.18,5.29.45,5.72,5,.59,8.4-12.51,9.12-15.81,1.36-6.29,2.46-14.76,1.23-21.11-1.06-5.44-8.39-1.84-12-1C81.5,3.5,74.18,4.82,67.29,7.25,55,11.6,48.65,22.6,49.9,35.53,48,31.65,45.24,28,41.45,25.77c-1.79-1-5.73-3-7.59-1.19-3.6,3.5,4,4.89,5.64,5.9,3.85,2.32,6.2,7.09,7.49,11.22C29,36,8,43.13,2,62.11c-6.67,21.14,4.42,46.63,19.94,61.21,4.58,4.3,10.08,7.89,16.24,9.4a18.87,18.87,0,0,0,10.08,0,58.75,58.75,0,0,0,5.65-3.18c21.53,14.89,43.22-15.8,49.81-33.18C109.7,80.5,111.13,56.82,95.2,46.14ZM99.08,94.4c-4.49,11.84-12,24.3-23.32,30.64a25.64,25.64,0,0,1-8.91,3.18c-4.33.59-6.84-.75-10.09-3.22-2.92-2.22-4.14-1.11-6.69,1-2.91,2.39-6.45,2.81-10.12,2-14.08-2.94-24.18-17.51-29.51-29.83-5.44-12.56-8.37-28.57-1-41C13.85,49.74,21.83,46,30.22,45a41.42,41.42,0,0,1,13,.71c4.61.91,5.37,2,4.71,6.67-1.86-.34-5.2-2.85-7-2.26-2.16.71-2,3.09-.77,4.56,2.34,2.77,8,3,11.3,3,3,0,7.72-.15,9.95-2.46,1.27-1.33,1.78-3.59-.3-4.56-2.31-1.08-5.8,1.8-8.18,2,.47-3,4.67-4.33,7.2-5.33a36.7,36.7,0,0,1,14.4-2.53c7.71.19,15.93,2.6,21.26,8.44C105.75,64.23,104,81.55,99.08,94.4Z"/><path class="cls-1" d="M92.35,73.79c-3.43-.16-3.08,5.54-3.33,7.67A45.38,45.38,0,0,1,84.27,96c-2.13,4.28-5.59,7.45-7.89,11.48s2.31,4.65,4.84,2.21c5.34-5.16,8.71-13,11-20C93.06,87.24,97.78,74,92.35,73.79Z"/><path class="cls-1" d="M89,68.12a2.54,2.54,0,0,0,4.58.64c1.2-1.8-.64-5.48-1.75-6.92-1.34-1.73-4-2.94-4.94,0C86.29,64,88.53,66.22,89,68.12Z"/></svg>