<svg id="Ñëîé_2" data-name="Ñëîé 2" xmlns="http://www.w3.org/2000/svg" width="137.77" height="117" viewBox="0 0 137.77 117"><defs><style>.cls-1{fill:#727272;}</style></defs><title>chair</title><path class="cls-1" d="M137.62,84.42a2.53,2.53,0,0,0-1.41-1.49L98.47,67.19a2.5,2.5,0,0,0-.94-.19l-23.27-.19L77.13,57l10.4,1h0S90,56,90,54.66,87.56,52,87.56,52L62.88,53h0s-2.49.15-2.5,1.53S62.85,57,62.85,57L72,57,69,67l-6.09,0L13.29,18a2.5,2.5,0,0,0-3.5,0l-9,8.77a2.5,2.5,0,0,0,0,3.55l55,56a2.5,2.5,0,0,0,1.78.75h4.58l.09,14H53.57a2.5,2.5,0,0,0-2.5,2.5v11a2.5,2.5,0,0,0,2.5,2.5h48a2.5,2.5,0,0,0,2.5-2.5v-11a2.5,2.5,0,0,0-2.5-2.5H90.07L90,87h2.92l34.93,12.81a2.53,2.53,0,0,0,3.1-1.18l6.54-12.16A2.53,2.53,0,0,0,137.62,84.42ZM85.18,102.36a2.6,2.6,0,0,0,.13.74,2.45,2.45,0,0,0,0,.4,2.52,2.52,0,0,0,2.53,2.5H99.07v6h-43v-6h8.49l.18,0,.32,0h0A2.5,2.5,0,0,0,67,103.7a2.69,2.69,0,0,0,.06-.55L67,87H85.07Zm42.06-8.19-32.76-12a2.5,2.5,0,0,0-.86-.15H59L6.75,28.83l5.44-5.29,48.4,47.74a2.49,2.49,0,0,0,1.73.72l34.88.28,34.14,14.24Z"/><path class="cls-1" d="M44.81,14.73l19.86,13a2.5,2.5,0,0,0,3.79-1.49c.12-.48,2.57-10.78-3.6-16.23l3-5H94.07V61a2.5,2.5,0,0,0,5,0V2.5A2.5,2.5,0,0,0,96.57,0H66.42a2.5,2.5,0,0,0-2.15,1.22L60.52,7.51a14.54,14.54,0,0,0-4.9-.85,18.66,18.66,0,0,0-11.07,4.06,2.5,2.5,0,0,0,.25,4Zm10.81-3.06A9.81,9.81,0,0,1,60.5,13c3.05,1.72,3.61,5.48,3.55,8.35l-13.16-8.6A12,12,0,0,1,55.63,11.66Z"/></svg>