<svg id="Layer_1" data-name="Layer 1" xmlns="http://www.w3.org/2000/svg" width="31.66" height="32.62" viewBox="0 0 31.66 32.62"><defs><style>.cls-1{fill:#334d5e;}</style></defs><title>dislike</title><path class="cls-1" d="M31.66,13.24v-.18A3.13,3.13,0,0,0,29.1,10a2.92,2.92,0,0,0,.6-1.76V8a3.12,3.12,0,0,0-2.35-3,2.92,2.92,0,0,0,.47-1.58V3.27A3.13,3.13,0,0,0,24.69.15H21.92L16.79,0A15.39,15.39,0,0,0,6.73,3.62a30.64,30.64,0,0,1-5.86.73.89.89,0,0,0-.87.9L0,17.37a.9.9,0,0,0,.49.81,23,23,0,0,0,3.92,1.38c4,1.16,8.92,2.6,12.43,7.5l1.68,4.52a1.63,1.63,0,0,0,1.63,1.06,3.64,3.64,0,0,0,3.22-2.09,8.88,8.88,0,0,0-.2-5.89l-1.91-3.45h6.16a3,3,0,0,0,2.95-2.95v-.18a3.1,3.1,0,0,0-.78-2A2.94,2.94,0,0,0,31.66,13.24ZM21.34,19.76a1.68,1.68,0,0,1-1.49-.9s0,0,0,0c-.06-.26-.13-.49-.2-.74a1.81,1.81,0,0,1,1.68-1.71h5.93A1.69,1.69,0,0,1,29,18.07v.18a1.51,1.51,0,0,1-1.51,1.51ZM18.54,1.49a3.21,3.21,0,0,0,1,4.45,3.12,3.12,0,0,0,.28,4.46,3.13,3.13,0,0,0-.26,5.12,3.14,3.14,0,0,0-.57.53,7.37,7.37,0,0,0-5.41-4.66q-.54-.1-.85.57a.72.72,0,0,0,.57.85c2.46.49,4.09,2.32,5,5.56a3.1,3.1,0,0,0,1,2,.71.71,0,0,0,.08.3l2.57,4.63A7.63,7.63,0,0,1,22,30a2.48,2.48,0,0,1-1.87,1.17c-.24,0-.27-.08-.29-.12l-1.7-4.58a1.12,1.12,0,0,0-.12-.23c-3.8-5.33-9.25-6.92-13.23-8.08A26.38,26.38,0,0,1,1.46,17l0-11.26C3.36,5.67,7,5.26,7.68,4.7a14.8,14.8,0,0,1,9.07-3.25Zm7.84,2A1.51,1.51,0,0,1,25.2,4.92H21.81a3.08,3.08,0,0,0-.41,0h-.3a1.69,1.69,0,0,1,0-3.37h.78l2.92.08a.67.67,0,0,0,.24,0,1.69,1.69,0,0,1,1.34,1.65Zm1.88,4.77a1.51,1.51,0,0,1-1.51,1.51H21.81a1.69,1.69,0,0,1-.36-3.33h3.42a2.91,2.91,0,0,0,.41,0h1.3A1.69,1.69,0,0,1,28.26,8Zm2,5a1.51,1.51,0,0,1-1.51,1.51H21.43a1.69,1.69,0,0,1,0-3.37h7.1a1.69,1.69,0,0,1,1.69,1.69Z" transform="translate(0 0)"/></svg>