<svg id="Ñëîé_2" data-name="Ñëîé 2" xmlns="http://www.w3.org/2000/svg" width="96" height="119.83" viewBox="0 0 96 119.83"><defs><style>.cls-1{fill:#727272;}</style></defs><title>doc</title><path class="cls-1" d="M87,119.83H8.92A8.93,8.93,0,0,1,0,110.9V17.8a9,9,0,0,1,8.92-9H18a2.5,2.5,0,0,1,0,5H8.92A4,4,0,0,0,5,17.8v93.1a3.93,3.93,0,0,0,3.92,3.92H87a3.94,3.94,0,0,0,4-3.92V17.8a4,4,0,0,0-4-4H80a2.5,2.5,0,0,1,0-5h7a9,9,0,0,1,9,9v93.1A9,9,0,0,1,87,119.83Z"/><path class="cls-1" d="M26.91,44.7a2.51,2.51,0,0,1-1.54-.53l-.14-.09a2.5,2.5,0,0,1,2.45-4.34A2.66,2.66,0,0,1,29,40.85a2.5,2.5,0,0,1-2.1,3.85Zm.71-.24a2.56,2.56,0,0,1-.77.13A2.48,2.48,0,0,0,27.61,44.46Zm-1-4.86a2.41,2.41,0,0,0-.62.12A2.48,2.48,0,0,1,26.64,39.6Z"/><path class="cls-1" d="M26.91,59.6a2.51,2.51,0,0,1-1.54-.53L25.23,59a2.5,2.5,0,0,1,2.44-4.34A2.66,2.66,0,0,1,29,55.75a2.5,2.5,0,0,1-2.1,3.85Zm-.27-5.1a2.46,2.46,0,0,0-.62.12A2.54,2.54,0,0,1,26.64,54.5Z"/><path class="cls-1" d="M26.91,73.63a2.51,2.51,0,0,1-1.53-.52L25.23,73a2.5,2.5,0,0,1,2.4-4.36A2.65,2.65,0,0,1,29,69.78a2.5,2.5,0,0,1-2.1,3.85Zm-.12-.11a2.15,2.15,0,0,0,.86-.14A2.81,2.81,0,0,1,26.79,73.52Zm-.27-5a2.43,2.43,0,0,0-.53.12A2.43,2.43,0,0,1,26.52,68.54Z"/><path class="cls-1" d="M26.91,87.65a2.51,2.51,0,0,1-1.54-.53L25.23,87a2.5,2.5,0,0,1,2.42-4.35A2.65,2.65,0,0,1,29,83.81a2.5,2.5,0,0,1-2.1,3.85Zm.72-.24a2.56,2.56,0,0,1-.81.14A2.49,2.49,0,0,0,27.63,87.41Zm-1.05-4.85a2.44,2.44,0,0,0-.58.13A2.5,2.5,0,0,1,26.58,82.56Z"/><path class="cls-1" d="M67,44.83H37a2.5,2.5,0,0,1,0-5H67a2.5,2.5,0,0,1,0,5Z"/><path class="cls-1" d="M68,59.83H38a2.5,2.5,0,0,1,0-5H68a2.5,2.5,0,0,1,0,5Z"/><path class="cls-1" d="M68,73.83H38a2.5,2.5,0,0,1,0-5H68a2.5,2.5,0,0,1,0,5Z"/><path class="cls-1" d="M68,87.83H38a2.5,2.5,0,0,1,0-5H68a2.5,2.5,0,0,1,0,5Z"/><path class="cls-1" d="M72.59,24.83h-46a2.5,2.5,0,0,1-2.49-2.26C23.46,15.91,25.31,2.81,36.85.81a84.63,84.63,0,0,1,13-.81c6.23,0,11.54.39,14.21,1,12.06,3,11,20.69,11,21.44A2.5,2.5,0,0,1,72.59,24.83ZM29,19.83H70.1C70,15.69,68.9,7.38,62.9,5.9c-2.24-.55-7.35-.9-13-.9a81.19,81.19,0,0,0-12.17.73C30.21,7,29.1,15.65,29,19.83Z"/><path class="cls-1" d="M78.08,108.83H18.34c-4.53,0-7.34-4.43-7.34-8.53V27.16a7,7,0,0,1,7.34-7.33H20a2.5,2.5,0,0,1,0,5H18.34A2.09,2.09,0,0,0,16,27.16v73.14c0,1.63,1,3.53,2.34,3.53H78.08c1.26,0,1.92-2.05,1.92-3.53V27.16c0-2.44-1.39-2.53-1.84-2.56a2.5,2.5,0,0,1,.31-5c3.91.24,6.54,3.28,6.54,7.55v73.14C85,104.43,82.57,108.83,78.08,108.83Z"/></svg>