<svg id="Layer_1" data-name="Layer 1" xmlns="http://www.w3.org/2000/svg" width="34.19" height="33.95" viewBox="0 0 34.19 33.95"><defs><style>.cls-1{fill:#334d5e;}</style></defs><title>factory</title><path class="cls-1" d="M33.95,22.59a.71.71,0,0,0-.26-.3l-6.35-4a.68.68,0,0,0,0-.1V2.32A2.32,2.32,0,0,0,25,0h-.58a2.32,2.32,0,0,0-2.32,2.32V15l-4.75-3a.72.72,0,0,0-.77,0L.33,22.28h0a.71.71,0,0,0-.22.24l0,.08a.7.7,0,0,0-.06.23s0,0,0,.06,0,0,0,0A.67.67,0,0,0,0,23a.71.71,0,0,0,.07.2v0a.71.71,0,0,0,.22.23l0,0L16.63,33.84a.68.68,0,0,0,.66,0l16.28-2.41a.72.72,0,0,0,.61-.71V23.11A.71.71,0,0,0,33.95,22.59ZM17,32.38,2.69,23.29l14-2.4,9.2,5.84ZM4.13,21.58l12.12-7.69v5.62Zm23.11,4.31-.06-.06-9.49-6v-6L32,22.89ZM23.58,2.32a.88.88,0,0,1,.88-.88H25a.88.88,0,0,1,.88.88v15l-2.34-1.48ZM20.32,32,32.75,24.1v6Z"/></svg>