<svg id="Ñëîé_2" data-name="Ñëîé 2" xmlns="http://www.w3.org/2000/svg" width="29" height="36.65" viewBox="0 0 29 36.65"><defs><style>.cls-1{fill:none;}.cls-2{fill:#727272;}</style></defs><title>instr</title><path class="cls-1" d="M21.92,23.95l-1.24-.06h0c-.11,0-.2.13-.21.23l-.92,10.69a.18.18,0,0,0,.05.14s.1,0,.15,0l2.47-.05h0c.06,0,.11,0,.15,0a.17.17,0,0,0,.06-.13l-.31-10.63A.23.23,0,0,0,21.92,23.95Z"/><path class="cls-1" d="M8.94,23.95l-1.24-.06h0c-.11,0-.2.13-.21.23L6.56,34.81a.18.18,0,0,0,.05.14s.1,0,.15,0l2.47-.05h0c.06,0,.11,0,.15,0a.17.17,0,0,0,.06-.13L9.14,24.17A.23.23,0,0,0,8.94,23.95Z"/><circle class="cls-1" cx="20.47" cy="8.97" r="3.43" transform="translate(1.64 21.01) rotate(-56.24)"/><path class="cls-1" d="M24.4,3.11a7,7,0,1,0,1.93,9.71A7,7,0,0,0,24.4,3.11Zm.21,8.62a5,5,0,1,1-1.37-6.9A5,5,0,0,1,24.61,11.73Z"/><path class="cls-2" d="M23.24,4.83a5,5,0,1,0,1.37,6.9A5,5,0,0,0,23.24,4.83Zm.09,6a3.43,3.43,0,1,1-.95-4.76A3.44,3.44,0,0,1,23.33,10.88Z"/><path class="cls-2" d="M28.83,7.27a8.5,8.5,0,1,0-8.44,10.14.15.15,0,0,1,.15.15l-.07,3.1a.74.74,0,0,0,.33.64A.77.77,0,0,0,22,20.7L22,17.4a.15.15,0,0,1,.12-.14,8.48,8.48,0,0,0,6.68-10Zm-2.51,5.54A7,7,0,1,1,24.4,3.11,7,7,0,0,1,26.33,12.82Z"/><path class="cls-2" d="M22.79,22.7h-3a.68.68,0,0,0-.68.65l-1,12.39a.69.69,0,0,0,.19.5l.12.1a.69.69,0,0,0,.38.11H23a.64.64,0,0,0,.54-.2.72.72,0,0,0,.22-.49l-.33-12.38A.68.68,0,0,0,22.79,22.7Zm-.42,12.24s-.09,0-.15,0h0L19.75,35c-.06,0-.11,0-.15,0a.18.18,0,0,1-.05-.14l.92-10.69c0-.11.1-.23.21-.23h0l1.24.06a.23.23,0,0,1,.21.23l.31,10.63A.17.17,0,0,1,22.38,34.94Z"/><polygon class="cls-2" points="23.03 36.65 23.08 36.44 23.03 36.44 23.03 36.44 23.03 36.65"/><path class="cls-2" d="M9.82,22.7H9a.73.73,0,0,1-.9,0H6.85a.69.69,0,0,0-.69.65l-1,12.45a.69.69,0,0,0,.19.5l.12.1a.69.69,0,0,0,.38.11H9.4c.43,0,.93.13,1.26-.2a.68.68,0,0,0,.19-.49l-.35-12.43A.69.69,0,0,0,9.82,22.7ZM9.39,34.94s-.09,0-.15,0h0L6.77,35c-.06,0-.11,0-.15,0a.18.18,0,0,1-.05-.14l.92-10.69c0-.11.1-.23.21-.23h0l1.24.06a.23.23,0,0,1,.21.23L9.45,34.8A.17.17,0,0,1,9.39,34.94Z"/><path class="cls-2" d="M7.44,16.88A.75.75,0,0,0,8,15.64l-6.21-7,8-7.33a.75.75,0,0,0-1-1.1L.24,8a.75.75,0,0,0-.06,1l6.69,7.56A.74.74,0,0,0,7.44,16.88Z"/><path class="cls-2" d="M9,22.69a.74.74,0,0,0,.3-.59V18.52a.75.75,0,0,0-1.49,0V22.1a.74.74,0,0,0,1.2.59Z"/></svg>