<svg id="Layer_1" data-name="Layer 1" xmlns="http://www.w3.org/2000/svg" width="35.22" height="35.63" viewBox="0 0 35.22 35.63"><defs><style>.cls-1{fill:#334d5e;}</style></defs><title>med-man</title><path class="cls-1" d="M17.61,9.71A.72.72,0,0,0,18.33,9V7.15h1.84a.72.72,0,0,0,0-1.44H18.33V3.87a.72.72,0,0,0-1.44,0V5.71H15.05a.72.72,0,0,0,0,1.44h1.84V9A.72.72,0,0,0,17.61,9.71Z"/><path class="cls-1" d="M10.55,8.47a.72.72,0,0,0,.63-.8L10.7,3.52C13.29.73,21.94.75,24.52,3.52L24,7.68a.72.72,0,0,0,.63.8.77.77,0,0,0,.8-.63L26,3.53a1.19,1.19,0,0,0-.35-.94c-3.1-3.47-12.93-3.45-16,0a1.19,1.19,0,0,0-.35.94l.49,4.31A.72.72,0,0,0,10.55,8.47Z"/><path class="cls-1" d="M31.4,27c-2.8-.49-6.5-1.32-7.72-2a1.3,1.3,0,0,0-.37-.11.72.72,0,0,0-.79.54c-.58,2.29-2,6.18-4.93,6.18-2.07,0-3.94-2.37-4.89-6.18a.83.83,0,0,0-.89-.53.72.72,0,0,0-.27.1c-1.22.72-4.92,1.55-7.72,2C2.06,27.32,0,28.37,0,30.33V31a.73.73,0,0,0,0,.1L.57,35A.72.72,0,1,0,2,34.81l-.56-3.86v-.62c0-1,1.36-1.68,2.62-1.9a44.82,44.82,0,0,0,7.46-1.86C12.73,30.63,15,33,17.59,33c3.38,0,5.27-3.68,6.1-6.45a44.72,44.72,0,0,0,7.47,1.86c1.26.22,2.62.91,2.62,1.9v.62l-.56,3.86a.72.72,0,0,0,.61.82.77.77,0,0,0,.82-.61l.57-3.91a.66.66,0,0,0,0-.1v-.67C35.22,28.5,33.3,27.35,31.4,27Z"/><path class="cls-1" d="M28.3,34.19H23.38a.72.72,0,0,0,0,1.44H28.3A.72.72,0,0,0,28.3,34.19Z"/><path class="cls-1" d="M11,20c2.39,6.95,10.87,7,13.27,0A2.19,2.19,0,0,0,25.78,19a4.53,4.53,0,0,0,.73-2.5c0-1.3-.57-2.22-1.51-2.41,0-.09,0-.2,0-.28,0-1.11,0-2.78-.92-3.58s-2-.67-3.61.54l-.52.41a3,3,0,0,1-2.35.88,3,3,0,0,1-2.37-.87l-.52-.41c-1.58-1.21-2.79-1.39-3.61-.54s-1,2.45-.92,3.58c0,.09,0,.19,0,.28a2.17,2.17,0,0,0-1.51,2.4A4.53,4.53,0,0,0,9.43,19,2.19,2.19,0,0,0,11,20Zm-.41-4.58c1.14-.07,1.09-1.25,1.07-1.75s-.18-2,.41-2.42l.09-.09c.22-.24.84,0,1.71.67l.49.39a4.35,4.35,0,0,0,3.28,1.2,4.33,4.33,0,0,0,3.26-1.2l.49-.39c.87-.67,1.49-.91,1.71-.67l.09.09c.59.46.44,1.79.41,2.42s-.07,1.68,1.07,1.75c.41,0,.43.83.42,1a3.16,3.16,0,0,1-.49,1.7c-.09.13-.31.44-.6.45l-.15,0a.72.72,0,0,0-.8.51c-1.82,6.25-9,6.3-10.84,0a.77.77,0,0,0-.8-.51l-.21,0q-.36,0-.56-.45a3.15,3.15,0,0,1-.48-1.71C10.15,16.29,10.16,15.48,10.57,15.45Z"/></svg>