<svg id="Layer_1" data-name="Layer 1" xmlns="http://www.w3.org/2000/svg" width="34.44" height="29.44" viewBox="0 0 34.44 29.44"><defs><style>.cls-1{fill:#334d5e;}</style></defs><title>med-key</title><path class="cls-1" d="M32.61,5H22.44V2.54A2.54,2.54,0,0,0,19.91,0H13.53A2.54,2.54,0,0,0,11,2.54V5H1.83A1.83,1.83,0,0,0,0,6.82V27.6a1.84,1.84,0,0,0,1.83,1.83H32.61a1.84,1.84,0,0,0,1.83-1.83V6.83A1.84,1.84,0,0,0,32.61,5ZM12.44,2.54a1.1,1.1,0,0,1,1.09-1.11h6.38A1.11,1.11,0,0,1,21,2.54V5H12.44ZM33,27.6a.4.4,0,0,1-.39.4H1.83a.4.4,0,0,1-.39-.4V6.82a.39.39,0,0,1,.39-.38H32.61a.4.4,0,0,1,.39.4Z"/><path class="cls-1" d="M22.73,14H20.44V11.71A1.71,1.71,0,0,0,18.73,10h-3A1.71,1.71,0,0,0,14,11.71V14H11.71A1.71,1.71,0,0,0,10,15.71v3.07a1.67,1.67,0,0,0,1.67,1.67H14v2.29a1.71,1.71,0,0,0,1.71,1.71h3a1.71,1.71,0,0,0,1.71-1.71V20.44h2.29a1.71,1.71,0,0,0,1.71-1.71v-3A1.71,1.71,0,0,0,22.73,14ZM23,18.73a.27.27,0,0,1-.27.27h-3a.72.72,0,0,0-.72.72v3a.27.27,0,0,1-.27.27h-3a.27.27,0,0,1-.27-.27v-3a.72.72,0,0,0-.72-.72H11.67a.23.23,0,0,1-.23-.23V15.71a.27.27,0,0,1,.27-.27h3a.72.72,0,0,0,.72-.72v-3a.27.27,0,0,1,.27-.27h3a.27.27,0,0,1,.27.27v3a.72.72,0,0,0,.72.72h3a.27.27,0,0,1,.27.27Z"/></svg>