<svg id="Layer_1" data-name="Layer 1" xmlns="http://www.w3.org/2000/svg" width="34.44" height="30.44" viewBox="0 0 34.44 30.44"><defs><style>.cls-1{fill:#334d5e;}</style></defs><title>money</title><path class="cls-1" d="M33.72,0H.72A.72.72,0,0,0,0,.72v17a.72.72,0,0,0,.72.72h33a.72.72,0,0,0,.72-.72V.72A.72.72,0,0,0,33.72,0ZM1.44,7a.72.72,0,0,0,.28.06A6,6,0,0,0,7.67,1.44H27.49A6,6,0,0,0,33,7.07v4A6,6,0,0,0,27.48,17H7.68a6,6,0,0,0-6-5.95.72.72,0,0,0-.28.06ZM33,5.61a4.5,4.5,0,0,1-4.05-4.17H33ZM6.21,1.44A4.51,4.51,0,0,1,1.72,5.65a.72.72,0,0,0-.28.06V1.44Zm-4.77,11a.72.72,0,0,0,.28.06A4.53,4.53,0,0,1,6.24,17H1.44ZM28.92,17A4.51,4.51,0,0,1,33,12.54V17Z"/><path class="cls-1" d="M17.58,15.46c2.74,0,5-2.87,5-6.39s-2.23-6.39-5-6.39-5,2.87-5,6.39S14.84,15.46,17.58,15.46Zm0-11.34c1.95,0,3.53,2.22,3.53,4.95S19.53,14,17.58,14,14,11.8,14,9.07,15.63,4.12,17.58,4.12Z"/><path class="cls-1" d="M9.06,10.89A1.82,1.82,0,1,0,7.24,9.07,1.82,1.82,0,0,0,9.06,10.89Zm0-2.2a.38.38,0,1,1-.38.38A.38.38,0,0,1,9.06,8.69Z"/><path class="cls-1" d="M26.08,10.89a1.82,1.82,0,1,0-1.82-1.82A1.82,1.82,0,0,0,26.08,10.89Zm0-2.2a.38.38,0,1,1-.38.38A.38.38,0,0,1,26.08,8.69Z"/><path class="cls-1" d="M33.72,21H.72a.72.72,0,0,0,0,1.44h33a.72.72,0,1,0,0-1.44Z"/><path class="cls-1" d="M33.72,25H.72a.72.72,0,0,0,0,1.44h33a.72.72,0,1,0,0-1.44Z"/><path class="cls-1" d="M33.72,29H.72a.72.72,0,0,0,0,1.44h33a.72.72,0,1,0,0-1.44Z"/></svg>