<svg id="Layer_3" data-name="Layer 3" xmlns="http://www.w3.org/2000/svg" width="18" height="18.1" viewBox="0 0 18 18.1"><defs><style>.cls-1{fill:#35424b;}</style></defs><title>phone</title><path class="cls-1" d="M14.16,18.1a14.1,14.1,0,0,1-9.75-4.35A14,14,0,0,1,0,3.68V3.55l.08-.1a9.56,9.56,0,0,1,.74-.84A9.31,9.31,0,0,1,4.06.51,1,1,0,0,1,4.43.44c.42,0,1.12.22,1.26.63.43,1.19,1,2.75,1.37,4.24a1.55,1.55,0,0,1-.41,1.37l-1.41.89a.36.36,0,0,0-.15.24,1.1,1.1,0,0,0,.23.81,20.1,20.1,0,0,0,1.91,2.24,20,20,0,0,0,2.23,1.9c.38.28.91.31,1,.09l.89-1.41c.28-.43,1.13-.44,1.14-.44l.22,0a19.61,19.61,0,0,1,4.29,1.38A1.54,1.54,0,0,1,17.59,14a9.3,9.3,0,0,1-2.1,3.23,9.73,9.73,0,0,1-.84.74l-.1.08ZM.8,3.83a13.22,13.22,0,0,0,4.12,9.3l.06.06a13.3,13.3,0,0,0,9.19,4.12h.11a8.35,8.35,0,0,0,2.58-3.55,1,1,0,0,0-.17-.65,19.29,19.29,0,0,0-4.08-1.3,1,1,0,0,0-.55.11l-.86,1.36A1.56,1.56,0,0,1,9,13.42a20.78,20.78,0,0,1-2.32-2,20.94,20.94,0,0,1-2-2.33,1.88,1.88,0,0,1-.37-1.43,1.13,1.13,0,0,1,.51-.76L6.22,6a1.62,1.62,0,0,0,.07-.5c-.38-1.46-.92-3-1.35-4.17a2,2,0,0,0-.52-.11H4.34a8.52,8.52,0,0,0-3,1.92,8.61,8.61,0,0,0-.59.66Z"/><path class="cls-1" d="M17.6,9.27a.4.4,0,0,1-.4-.4A8.08,8.08,0,0,0,9.13.79a.4.4,0,1,1,0-.79A8.88,8.88,0,0,1,18,8.87a.4.4,0,0,1-.4.4Z"/><path class="cls-1" d="M15.11,9.27a.4.4,0,0,1-.4-.4A5.59,5.59,0,0,0,9.13,3.28a.4.4,0,1,1,0-.79,6.39,6.39,0,0,1,6.38,6.38.4.4,0,0,1-.4.4Z"/><path class="cls-1" d="M12.49,9.27a.4.4,0,0,1-.4-.4,3,3,0,0,0-3-3,.4.4,0,1,1,0-.79,3.76,3.76,0,0,1,3.76,3.76.4.4,0,0,1-.4.4Z"/></svg>