<svg id="Layer_1" data-name="Layer 1" xmlns="http://www.w3.org/2000/svg" width="33.27" height="33.27" viewBox="0 0 33.27 33.27"><defs><style>.cls-1{fill:#334d5e;}</style></defs><title>question</title><path class="cls-1" d="M28.66,33.27a.72.72,0,0,1-.27-.05A23.36,23.36,0,0,1,21.47,29a18.51,18.51,0,0,1-4.83.63C7.46,29.66,0,23,0,14.83S7.46,0,16.64,0,33.27,6.65,33.27,14.83a13.93,13.93,0,0,1-4.81,10.44l.91,7.2a.72.72,0,0,1-.71.81Zm-7-5.77a.72.72,0,0,1,.49.19,21,21,0,0,0,5.63,3.7L27,25.07a.72.72,0,0,1,.25-.64,12.57,12.57,0,0,0,4.6-9.6c0-7.38-6.82-13.39-15.2-13.39s-15.2,6-15.2,13.39,6.82,13.39,15.2,13.39a17,17,0,0,0,4.82-.69Z"/><path class="cls-1" d="M16.52,18.12a.72.72,0,0,1-.72-.72,4.42,4.42,0,0,1,2.14-3.89c.8-.62,1.33-1,1.31-2.1,0-1.5-1.52-2.17-2.92-2.17h0c-1.42,0-3,.74-3,2.3a.72.72,0,0,1-1.44,0c0-2.43,2.2-3.72,4.38-3.74S20.65,9,20.69,11.38a3.76,3.76,0,0,1-1.88,3.27,3,3,0,0,0-1.58,2.75A.72.72,0,0,1,16.52,18.12Z"/><path class="cls-1" d="M16.74,22.55h-.22a.72.72,0,0,1-.7-.74.73.73,0,0,1,.74-.7h.18a.72.72,0,1,1,0,1.44Z"/></svg>