<svg id="Layer_1" data-name="Layer 1" xmlns="http://www.w3.org/2000/svg" width="263" height="530.76" viewBox="0 0 263 530.76"><defs><style>.cls-1{fill:#231f20;}</style></defs><title>scroll</title><path class="cls-1" d="M223.91,32C199.15,11.38,166.34,0,131.5,0S63.85,11.38,39.1,32C13.88,53.07,0,81.19,0,111.21V315.93c0,30,13.88,58.14,39.09,79.16,24.76,20.66,57.58,32,92.41,32.05s67.65-11.39,92.4-32c25.22-21,39.1-49.14,39.1-79.16V111.21C263,81.19,249.12,53.07,223.91,32ZM131,17.25H131c30.74,0,59.56,9.94,81.16,28C233.34,62.91,245,86.25,245,111V315.65c0,24.71-11.66,48.05-32.81,65.73-21.61,18-50.42,28-81.15,28H131c-30.72,0-59.55-9.94-81.16-28C28.66,363.7,17,340.36,17,315.65V111c0-24.71,11.66-48.05,32.81-65.73C71.42,27.18,100.24,17.25,131,17.25Z"/><path class="cls-1" d="M131.2,176a42.43,42.43,0,1,0-42.44-42.44A42.49,42.49,0,0,0,131.2,176Zm-25-42.44a24.95,24.95,0,1,1,7.31,17.65A24.82,24.82,0,0,1,106.24,133.61Z"/><path class="cls-1" d="M161.15,476.37h-.28L131.19,506l-28.5-28.5a8.74,8.74,0,0,0-14.92,6.18,8.67,8.67,0,0,0,2.56,6.18l40.86,40.86,40.86-40.86a8.74,8.74,0,0,0-10.9-13.53Z"/></svg>