<svg id="Layer_1" data-name="Layer 1" xmlns="http://www.w3.org/2000/svg" width="33.33" height="33.33" viewBox="0 0 33.33 33.33"><defs><style>.cls-1{fill:#334d5e;}</style></defs><title>termometr</title><path class="cls-1" d="M31.53,1.8a6.19,6.19,0,0,0-8.74,0L18.49,6.11h0l-6.35,6.35h0L9,15.63H9L6.24,18.35c-.79.78-.85,2.19-.92,3.68,0,1-.11,2.34-.5,2.73l-4,4a2.65,2.65,0,0,0,0,3.75,2.63,2.63,0,0,0,1.87.77h0a2.63,2.63,0,0,0,1.87-.77l4-4c.39-.39,1.69-.45,2.73-.5,1.49-.07,2.9-.14,3.68-.92L31.53,10.54a6.2,6.2,0,0,0,0-8.74Zm-1,7.72L14,26.07c-.39.39-1.69.45-2.73.5-1.49.07-2.9.14-3.68.92l-4,4a1.2,1.2,0,0,1-.85.35h0a1.21,1.21,0,0,1-.85-2.06l4-4c.78-.79.85-2.19.92-3.68,0-1,.11-2.34.5-2.73l2.21-2.21,1.06,1.06a.72.72,0,0,0,1-1l-1.06-1.06L12.65,14,13.71,15a.72.72,0,0,0,1-1L13.66,13l2.16-2.16,1.06,1.06a.72.72,0,0,0,1-1L16.84,9.79,19,7.64,20.06,8.7a.72.72,0,0,0,1-1L20,6.62l3.8-3.8a4.75,4.75,0,0,1,6.7,0h0a4.76,4.76,0,0,1,0,6.7Z"/><path class="cls-1" d="M22.72,9.59,8.27,24a.72.72,0,0,0,1,1L23.74,10.61a.72.72,0,0,0-1-1Z"/></svg>