<svg id="Ñëîé_2" data-name="Ñëîé 2" xmlns="http://www.w3.org/2000/svg" width="98.52" height="100.62" viewBox="0 0 98.52 100.62"><defs><style>.cls-1{fill:#727272;}</style></defs><title>tooth-hole</title><path class="cls-1" d="M92.69,8.48c-6.15-6.6-13.9-8.81-23.93-6.59L68.71,2h-.1c-10.84,2.36-11,9.91-10.83,12.16a22.16,22.16,0,0,0,1.65,6c1.17,3.08,2.19,5.74.82,8.92-1,2.25-4.2,4-6.76,4.31s-8.94.68-11.64-3.82c-1.7-2.84-.79-4.21.85-6.72A14.35,14.35,0,0,0,34.31,1a2.47,2.47,0,0,0-1.14,0C25.46-.46,15.51-1,9.75,4.08-2.42,14.73-.19,30.27.88,37.73c.18,1.24.33,2.32.37,3,.46,8.9,9.57,38.18,11.23,43.19.18.55.37,1.21.58,1.92,1.58,5.37,4.23,14.33,11.7,13.42,5.79-.72,7.64-5,9.13-8.36a121.75,121.75,0,0,1,6.49-12.55c1.27,4.18,3.1,9.29,7.42,10.15,6.89,1.38,9.85-4.21,11.12-10,.13-.58.24-1.1.37-1.53a2.27,2.27,0,0,0-4.35-1.27c-.16.54-.29,1.16-.44,1.82-1.12,5.07-2.22,7.21-5.79,6.49-2-.4-3.49-5.37-4.28-8-.25-.84-.48-1.61-.71-2.25a2.28,2.28,0,0,0-.19-.42C45.3,71,48,68.31,50.68,68.81c9.22,1.68,12.88,12.33,15.82,20.9a22,22,0,0,1,.63,2.41c.63,2.81,1.4,6.31,5.58,7.9A8.85,8.85,0,0,0,82,98.2a18.44,18.44,0,0,0,4.21-6.32,119.56,119.56,0,0,0,4.58-15.46c.66-2.6,4.11-19.43,5-24.25C98.68,36.25,101.22,17.63,92.69,8.48Zm-3,51.15c-3.78,20.27-7.79,30.89-8.32,31.9a12.2,12.2,0,0,1-2.41,3.34,4,4,0,0,1-4.6.92c-1.81-.69-2.17-2-2.76-4.64a25.78,25.78,0,0,0-.77-2.9c-3.15-9.17-7.47-21.73-19.3-23.88C46.83,63.51,42,66.73,38,73.45a135.87,135.87,0,0,0-8.29,15.66c-1.64,3.75-2.6,5.31-5.53,5.67-3.38.44-5.27-5-6.79-10.2-.23-.77-.44-1.47-.63-2.06-1.22-3.71-4.33-13.79-6.94-23.37.77,1.52,1.56,3,2.39,4.49.24.43.49.89.75,1.36,1.77,3.25,4,7.3,7.78,9,3.58,1.59,7.38.16,10.4-1.95a2.27,2.27,0,1,0-2.59-3.72c-3.29,2.29-5,2-6,1.53-2.41-1.07-4.13-4.23-5.64-7-.27-.49-.53-1-.78-1.42a112.23,112.23,0,0,1-5.12-10.29c-.34-.77-.71-1.58-1.1-2.42a70.5,70.5,0,0,1-4.54-12,2.26,2.26,0,0,0-.17-.44c-1-7.34-2.45-20.05,7.49-28.75,4.47-3.91,13.49-3.13,19.64-2a2.47,2.47,0,0,0,.67.3A9.3,9.3,0,0,1,38.51,20c-1.8,2.74-4.26,6.5-1,12,3.41,5.7,10.48,7,16.6,6.21C58,37.76,63,35.26,64.83,31c2.17-5,.55-9.28-.74-12.68a18.24,18.24,0,0,1-1.34-4.61c-.21-2.39.82-5.51,6.92-6.84a2.48,2.48,0,0,0,.58-.21c8.32-1.92,14-.59,19.13,4.92C96.35,19.06,92.42,44.77,89.65,59.63Z"/><path class="cls-1" d="M45,59.64a14.65,14.65,0,0,0-10.66,3.86A2.27,2.27,0,0,0,37.25,67c2.32-1.91,4.23-2.93,7.63-2.82C47.8,64.25,48,59.73,45,59.64Z"/><path class="cls-1" d="M23.24,10.49c-2.42-.06-5.58,1.74-7.36,3.25-5.31,4.5-4.65,10.36-3.61,15.5A2.27,2.27,0,0,0,14.5,31,2.22,2.22,0,0,0,15,31a2.27,2.27,0,0,0,1.77-2.67c-1.08-5.3-1-8.48,2.09-11.14a10.15,10.15,0,0,1,3.43-1.83c.92-.29,2-.23,2.68-1a2.25,2.25,0,0,0,.16-3A2.37,2.37,0,0,0,23.24,10.49Z"/><path class="cls-1" d="M32.17,12c-1.82-1.28-4.36-1.36-4.84,1.37-.31,1.79,1.06,1.52,2.23,2.34A2.27,2.27,0,0,0,32.17,12Z"/></svg>