<svg id="Ñëîé_2" data-name="Ñëîé 2" xmlns="http://www.w3.org/2000/svg" width="127.57" height="140.47" viewBox="0 0 127.57 140.47"><defs><style>.cls-1{fill:#727272;}</style></defs><title>toothbrush</title><path class="cls-1" d="M126.21,40.09a2.52,2.52,0,0,0-.36-.44l-8.22-7.94a2.5,2.5,0,0,0-3.51,0l-3.56,3.57-12.42-13a2.5,2.5,0,1,0-3.61,3.46l12.5,13-3.93,3.93L90.76,30a2.5,2.5,0,1,0-3.6,3.47l12.4,12.85-3.93,3.93L83.38,37.62a2.5,2.5,0,1,0-3.59,3.48L92.1,53.77l-3.93,3.93L76,45.26a2.5,2.5,0,0,0-3.58,3.5L84.64,61.24l-3.93,3.93L68.63,52.9c-2.27-2.3-5.83,1.2-3.56,3.51L77.18,68.71l-3.93,3.93-12-12.11a2.5,2.5,0,0,0-3.55,3.52l12,12.13-3.93,3.93L53.88,68.17a2.5,2.5,0,0,0-3.54,3.53l11.91,12-5.6,5.61-22.34,2a2.5,2.5,0,0,0-1.58.76l-32,33.45a2.5,2.5,0,0,0,3.61,3.46L35.69,96.16l22.31-2a2.5,2.5,0,0,0,1.55-.72L115.92,37l6.2,6c.37.72,1.34,3.29-1.46,6.13-.33.34-1.25,1.31-2.63,2.77-41.94,44.34-53.36,52.51-56.44,53.44-2.73.83-12.51.61-18,.28a2.51,2.51,0,0,0-2,.77L13.25,136.25a2.5,2.5,0,1,0,3.63,3.44l27.55-29c6.39.33,14.34,1.45,20.31-1.27,4.22-1.92,8-5.65,11.41-8.65,16.1-14.1,30.82-29.88,45.51-45.41,1.34-1.42,2.23-2.36,2.56-2.69C129,47.75,127.64,42.29,126.21,40.09Z"/><path class="cls-1" d="M41.29,70.31a6.31,6.31,0,0,0,4.68-2c1.34-1.42,27.59-28.41,41.59-42.49.6-.6,1.21-1.19,1.82-1.79,1.27-1.23,2.58-2.5,3.8-3.87a8.83,8.83,0,0,0,2.25-7.44C94.71,8,90.79,4.2,87.65,2.35a16.48,16.48,0,0,0-5-2A14.87,14.87,0,0,0,72.24,1.72c-11,6.05-19.53,16.5-27.83,25.63-2.71,3-5.5,6.06-8.21,8.75-5,4.93-9.51,11.11-9.06,18.47C27.55,61.26,33.9,70.31,41.29,70.31ZM39.73,39.65c5-5,9.54-10.38,14.42-15.46C65.4,12.49,68.64,9.41,74.65,6.1a10.31,10.31,0,0,1,7-.82,11.5,11.5,0,0,1,3.46,1.38c2.37,1.4,5,4.18,5.38,6.79a3.83,3.83,0,0,1-1,3.34c-1.1,1.23-2.29,2.38-3.55,3.61-.63.62-1.27,1.23-1.89,1.85C70.57,35.78,44.07,63,42.34,64.83c-2.58,2.72-8.61-4.9-9.43-7C30.7,52.24,32.87,46.46,39.73,39.65Z"/></svg>