<svg id="Ñëîé_2" data-name="Ñëîé 2" xmlns="http://www.w3.org/2000/svg" width="98.66" height="100.65" viewBox="0 0 98.66 100.65"><defs><style>.cls-1{fill:#727272;}</style></defs><title>tooth</title><path class="cls-1" d="M92.81,8.51C86.78,2,78.69,0,70.14,1.64c-4.68.89-9.05,3.05-13.74,3.82-4.9.8-9.41-.77-14-2.19C35.28,1.11,27.63-.58,20.19.19,11.93,1,6,6.31,2.73,13.83-2,24.78.37,38.61,2.93,49.9S9,72.51,12.49,83.66c1.8,5.72,3.7,15.57,11.35,15.71,4.59.08,7.53-3,9.44-6.81,2.4-4.77,4.54-9.58,7.24-14.21,1,3.29,2.28,7.46,5.45,9.31a8.09,8.09,0,0,0,9.86-1.56c1.69-1.88,2.4-4.39,3-6.77.28-1.1.89-2.62.51-3.71a2.26,2.26,0,0,0-3.88-.75c-2.07,2-.69,6.49-3.29,8.51-3.12,2.43-5.34-1-6.37-3.58-.58-1.46-1-3-1.45-4.46-.67-2.06-.54-2.46,1-4,3.48-3.42,7.29-2.79,11,0,5.69,4.26,8.55,12.44,10.44,19,.89,3.1,1.16,6.44,3.91,8.57,3.93,3,9.09,1.92,12.27-1.55,5-5.4,6.37-14.26,8-21.18,1.35-5.75,2.47-11.57,3.63-17.36a194.64,194.64,0,0,0,3.85-25.17C99,25.28,98.88,15,92.81,8.51Zm-3,51c-1.88,10.1-3.87,20.7-7.67,30.29-1.26,3.18-4.5,8.34-8.45,5.46-2-1.46-2.07-5-2.74-7.15-.73-2.38-1.64-4.75-2.58-7.06C65,73,56.1,59.67,45.55,65.41,39.81,68.54,36.65,75.6,33.71,81.1c-2,3.66-3.94,12.28-8.48,13.42C19.34,96,17.65,84.82,16.45,81Q13,70.11,10,59c3.64,7.18,8.77,19.14,18.83,14.38,1.49-.71,3.84-1.77,3.41-3.81-.39-1.87-2.1-1.81-3.51-1.39-3.7,1.09-5.16,3.2-8.41-.43C14.75,61.6,11.39,52,8.23,44.45,5.29,37.38,3.86,30,5,22.31S10.6,6.44,18.68,4.9c6.17-1.17,13,.07,18.94,1.69,4.73,1.28,9.32,3.45,14.27,3.82,5.35.4,10-1.82,14.94-3.37,7.92-2.47,16.86-2.36,22.66,4.43,4.66,5.45,4.12,14.59,3.79,21.26A200.05,200.05,0,0,1,89.77,59.53Z"/><path class="cls-1" d="M45.13,59.54A14.9,14.9,0,0,0,36.25,62c-1.86,1.24-4.42,5.75,0,5.3,1.27-.13,2.38-1.56,3.48-2.14a13.64,13.64,0,0,1,4.53-1.13c1.32-.22,2.54-.18,2.92-1.77A2.26,2.26,0,0,0,45.13,59.54Z"/><path class="cls-1" d="M32.29,11.91C26.89,8.11,18,10.57,14.18,15.5a12.9,12.9,0,0,0-2.46,8.87c.1,2,.32,7.8,3.76,6.36,2.71-1.13.58-5.94.73-8.13a7.71,7.71,0,0,1,3.95-6.34,10.89,10.89,0,0,1,8.71-1.08c1.19.36,2,1.33,3.31.52A2.31,2.31,0,0,0,32.29,11.91Z"/><path class="cls-1" d="M37.37,18.29c1.94.21,4.26,2.15,6.27,1,2.22-1.27.95-3.46-.81-4.21-1.11-.48-4.62-1.69-5.88-1.21C34.81,14.69,34.85,18,37.37,18.29Z"/></svg>