<svg id="Ñëîé_2" data-name="Ñëîé 2" xmlns="http://www.w3.org/2000/svg" width="129.47" height="124.52" viewBox="0 0 129.47 124.52"><defs><style>.cls-1{fill:#727272;}</style></defs><title>tooth-loope</title><path class="cls-1" d="M92.85,41.42c0-23.59-31.81-32.74-44.44-12.9-13.49,21.19,12.18,47,33.44,33.12l4.64,7.3a2.58,2.58,0,0,0,3.45.77,2.5,2.5,0,0,0,.77-3.45l-4.94-7.79A24,24,0,0,0,92.85,41.42Zm-43.21,0c0-24.63,38.21-24.63,38.21,0S49.64,66.05,49.64,41.42Z"/><path class="cls-1" d="M68.74,27.69c-17.85,0-17.88,27.74,0,27.74S86.62,27.69,68.74,27.69Zm0,23.44c-12.36,0-12.29-19.15,0-19.15S81.1,51.14,68.74,51.14Z"/><path class="cls-1" d="M129,113.91,98.4,69.8A2.5,2.5,0,0,0,95,69.15l-6.91,4.57a2.5,2.5,0,0,0-.77,3.36l27.48,46.22a2.5,2.5,0,0,0,3.53.8l10.05-6.68a2.5,2.5,0,0,0,.67-3.51Zm-11.3,4.57L92.8,76.57l2.88-1.91,27.77,40Z"/><path class="cls-1" d="M91.71,97.79c-1.25.57-1.42,2-2,3.1A13.49,13.49,0,0,1,87,104.57a4.44,4.44,0,0,1-5.07,1c-2-.76-2.4-2.2-3-5.12a28.5,28.5,0,0,0-.84-3.2c-3.48-10.12-8.24-24-21.29-26.34-5.15-.93-10.42,2.63-14.86,10A150,150,0,0,0,32.8,98.22c-1.81,4.13-2.87,5.86-6.1,6.26C23,105,20.88,98.91,19.2,93.22c-.25-.85-.48-1.62-.69-2.27-1.35-4.08-4.76-15.15-7.63-25.69.84,1.66,1.71,3.29,2.62,4.9.27.47.54,1,.82,1.5,1.95,3.59,4.37,8.06,8.58,9.93,3.94,1.75,8.14.17,11.47-2.15,2.57-1.79-.17-6-2.86-4.11C27.89,77.86,26,77.51,24.93,77c-2.66-1.18-4.55-4.67-6.22-7.75-.29-.54-.58-1.07-.86-1.57A123.62,123.62,0,0,1,12.2,56.36c-.37-.85-.78-1.74-1.21-2.67A77.86,77.86,0,0,1,6,40.49,2.52,2.52,0,0,0,5.8,40C4.66,31.93,3.06,17.86,14.05,8.24c6.69-5.85,22.6-2.18,27.31-.92,1.61.43,3.23,1,4.94,1.54,4,1.33,8.13,2.71,12.39,2.74s8-1.34,11.65-2.67c1.77-.64,3.44-1.25,5.13-1.69,10-2.63,17.13-1,23.09,5.45,7.69,8.25,4.3,26.85,1.31,43.26-.49,2.67-1,5.29-1.39,7.81a2.5,2.5,0,1,0,4.94.75c.42-2.48.88-5,1.36-7.67,3.21-17.56,6.84-37.47-2.57-47.56C95,1.48,86.06-.7,74.21,2.41c-1.91.5-3.77,1.17-5.56,1.82C65.47,5.39,62.17,6.6,58.74,6.6S51.52,5.33,47.89,4.12C46.18,3.55,44.41,3,42.66,2.49c-8.47-2.27-23.88-5-31.9,2C-2.66,16.23-.21,33.34,1,41.57c.2,1.37.37,2.55.41,3.32C1.89,54.7,11.94,87,13.76,92.52c.2.61.41,1.33.64,2.12,1.75,5.92,4.66,15.81,12.9,14.81,6.38-.79,8.43-5.46,10.07-9.22A134.44,134.44,0,0,1,44.52,86.4c1.4,4.62,3.42,10.27,8.2,11.23,7.6,1.52,10.87-4.65,12.26-11,.14-.64.27-1.22.4-1.69a2.5,2.5,0,1,0-4.8-1.4c-1.09,3.74-1.41,10.27-6.88,9.17-2.22-.45-3.85-5.92-4.72-8.86-.28-.92-.53-1.77-.78-2.48a2.49,2.49,0,0,0-.23-.48c2-2.64,4.91-5.62,7.93-5.06,10.17,1.85,14.21,13.6,17.45,23a24.62,24.62,0,0,1,.69,2.66c.69,3.1,1.55,7,6.16,8.71a9.7,9.7,0,0,0,10.23-2,18.36,18.36,0,0,0,4.64-7C95.81,99.23,94.11,96.69,91.71,97.79Z"/><path class="cls-1" d="M37.56,73.53a2.56,2.56,0,0,0,3.52.34c2.55-2.11,4.66-3.23,8.42-3.11,3.12.08,3.43-4.9.16-5C44.4,65.61,41.14,67.34,37.9,70A2.5,2.5,0,0,0,37.56,73.53Z"/><path class="cls-1" d="M19.75,17.95c2.91-2.47,8.85-3.74,11.86-1.63a2.5,2.5,0,0,0,2.88-4.09c-5.06-3.56-13.53-1.85-18,1.9-5.86,5-5.12,11.42-4,17.09a2.5,2.5,0,0,0,4.9-1C16.26,24.38,16.29,20.88,19.75,17.95Z"/><path class="cls-1" d="M40.09,19.27a6.67,6.67,0,0,1,1.66.52,9.71,9.71,0,0,0,4.3.86,2.5,2.5,0,1,0-.43-5,4.32,4.32,0,0,1-2-.51,10.86,10.86,0,0,0-3-.85,2.5,2.5,0,0,0-.54,5Z"/></svg>