<svg id="Layer_1" data-name="Layer 1" xmlns="http://www.w3.org/2000/svg" width="34" height="34" viewBox="0 0 34 34"><defs><style>.cls-1{fill:#fff;}</style></defs><title>icon-2</title><path class="cls-1" d="M32.16,1.84a6.32,6.32,0,0,0-8.91,0L18.86,6.23h0l-6.47,6.47h0L9.15,15.94h0L6.37,18.72c-.8.8-.87,2.24-.94,3.76-.05,1.06-.11,2.39-.51,2.79L.79,29.39a2.71,2.71,0,0,0,0,3.82A2.68,2.68,0,0,0,2.7,34h0a2.69,2.69,0,0,0,1.91-.79l4.12-4.13c.4-.4,1.72-.46,2.79-.51,1.52-.07,3-.14,3.76-.94L32.16,10.75a6.32,6.32,0,0,0,0-8.91Zm-1,7.87L14.24,26.6c-.4.4-1.72.46-2.79.51-1.52.07-3,.14-3.76.94L3.57,32.17a1.22,1.22,0,0,1-.87.36h0a1.23,1.23,0,0,1-.87-2.1L6,26.3c.8-.8.87-2.24.94-3.76.05-1.06.11-2.39.51-2.79L9.66,17.5l1.08,1.08a.73.73,0,0,0,1-1L10.7,16.46l2.2-2.2L14,15.35a.73.73,0,1,0,1-1l-1.09-1.09,2.2-2.2,1.08,1.08a.73.73,0,1,0,1-1L17.18,10l2.2-2.2,1.08,1.09a.73.73,0,0,0,1-1L20.41,6.75l3.87-3.87a4.85,4.85,0,0,1,6.84,0h0a4.86,4.86,0,0,1,0,6.84Z"/><path class="cls-1" d="M23.18,9.78,8.44,24.53a.73.73,0,0,0,1,1L24.22,10.82a.73.73,0,0,0-1-1Z"/></svg>