<svg id="Layer_1" data-name="Layer 1" xmlns="http://www.w3.org/2000/svg" width="34" height="34" viewBox="0 0 34 34"><defs><style>.cls-1{fill:#fff;}</style></defs><title>icon-6</title><path class="cls-1" d="M32.63,18.12c-.57-.51-.89-.83-.94-1.44s.24-.83.78-1.36a3.33,3.33,0,0,0,1.28-3.16A.73.73,0,0,0,33.7,12a3.12,3.12,0,0,0-2.61-1.82c-.75-.16-1.19-.27-1.53-.78s-.21-.84,0-1.57a3.33,3.33,0,0,0-.47-3.38A.76.76,0,0,0,29,4.29,3.13,3.13,0,0,0,25.78,4a2.06,2.06,0,0,1-1.72.09c-.48-.24-.6-.63-.79-1.36A3.33,3.33,0,0,0,21.18.07L21,0a3.12,3.12,0,0,0-2.88,1.35c-.51.57-.83.89-1.44.94s-.83-.24-1.36-.78A3.33,3.33,0,0,0,12.16.24L12,.3a3.12,3.12,0,0,0-1.82,2.61c-.16.75-.27,1.19-.78,1.53s-.84.21-1.57,0a3.34,3.34,0,0,0-3.38.47A.76.76,0,0,0,4.29,5,3.12,3.12,0,0,0,4,8.22a2.07,2.07,0,0,1,.09,1.72c-.24.48-.63.6-1.36.79A3.33,3.33,0,0,0,.07,12.82.75.75,0,0,0,0,13a3.12,3.12,0,0,0,1.35,2.88c.57.51.89.83.94,1.44s-.24.83-.78,1.36A3.33,3.33,0,0,0,.24,21.84.73.73,0,0,0,.3,22a3.12,3.12,0,0,0,2.61,1.82c.75.16,1.19.27,1.53.78s.21.84,0,1.57a3.33,3.33,0,0,0,.47,3.38.76.76,0,0,0,.14.13A3.12,3.12,0,0,0,8.22,30a2.07,2.07,0,0,1,1.72-.09c.48.24.6.63.79,1.36a3.33,3.33,0,0,0,2.09,2.69L13,34l.37,0a3.21,3.21,0,0,0,2.51-1.37c.51-.57.83-.89,1.44-.94s.83.24,1.36.78a3.33,3.33,0,0,0,3.16,1.28L22,33.7a3.12,3.12,0,0,0,1.82-2.61c.16-.75.27-1.19.78-1.53s.85-.21,1.57,0a3.33,3.33,0,0,0,3.38-.47.76.76,0,0,0,.13-.14A3.12,3.12,0,0,0,30,25.78a2.07,2.07,0,0,1-.09-1.72c.24-.48.63-.6,1.36-.79a3.33,3.33,0,0,0,2.69-2.09A.74.74,0,0,0,34,21,3.13,3.13,0,0,0,32.63,18.12Zm-1.75,3.73a3.07,3.07,0,0,0-2.32,1.57,3.48,3.48,0,0,0,0,2.82c.26.78.37,1.2,0,1.76-.64.48-1.12.37-2,.13a3.07,3.07,0,0,0-2.8.2,3.48,3.48,0,0,0-1.4,2.45c-.17.81-.28,1.23-.89,1.53-.78.09-1.16-.24-1.77-.87a3.05,3.05,0,0,0-2.52-1.23,3.47,3.47,0,0,0-2.44,1.43c-.55.62-.85.93-1.53.88-.73-.31-.88-.79-1.1-1.64a3.07,3.07,0,0,0-1.57-2.32,3.48,3.48,0,0,0-2.82,0c-.78.26-1.2.37-1.77,0-.48-.64-.37-1.12-.13-2a3.07,3.07,0,0,0-.2-2.8,3.48,3.48,0,0,0-2.45-1.4c-.81-.17-1.23-.28-1.53-.89-.1-.79.24-1.16.87-1.77a3.07,3.07,0,0,0,1.23-2.52,3.47,3.47,0,0,0-1.43-2.44c-.61-.55-.92-.86-.88-1.53.31-.73.79-.88,1.64-1.1a3.07,3.07,0,0,0,2.32-1.57,3.47,3.47,0,0,0,0-2.82C5.17,7,5.06,6.56,5.43,6c.64-.48,1.12-.37,2-.13a3.06,3.06,0,0,0,2.8-.2,3.48,3.48,0,0,0,1.4-2.45c.17-.81.28-1.23.89-1.53.79-.1,1.16.24,1.77.87a3.05,3.05,0,0,0,2.52,1.23,3.47,3.47,0,0,0,2.44-1.43c.55-.61.86-.92,1.53-.88.73.31.88.79,1.1,1.64a3.07,3.07,0,0,0,1.57,2.32,3.48,3.48,0,0,0,2.82,0c.78-.26,1.2-.37,1.76,0,.48.64.37,1.12.13,2a3.07,3.07,0,0,0,.2,2.8,3.48,3.48,0,0,0,2.45,1.4c.81.17,1.23.28,1.53.89.1.79-.24,1.16-.87,1.77a3.07,3.07,0,0,0-1.23,2.52,3.47,3.47,0,0,0,1.43,2.44c.61.55.92.86.88,1.53C32.21,21.48,31.73,21.63,30.88,21.85Z"/><path class="cls-1" d="M18.55,13.28H12.91l4.21-2.82a.74.74,0,0,0-.82-1.23L10,13.42a.74.74,0,0,0,0,1.23l6.27,4.19a.74.74,0,0,0,.82-1.23l-4.29-2.86h5.71c2.63,0,4.77,1.74,4.77,3.88v.11c0,2.14-2.14,3.88-4.77,3.88h-7a.74.74,0,0,0,0,1.47h7c3.44,0,6.24-2.4,6.24-5.36v-.11C24.8,15.68,22,13.28,18.55,13.28Z"/></svg>