<svg id="Layer_1" data-name="Layer 1" xmlns="http://www.w3.org/2000/svg" width="35" height="34.76" viewBox="0 0 35 34.76"><defs><style>.cls-1{fill:#fff;}</style></defs><title>icon-5</title><path class="cls-1" d="M34.76,23.12a.73.73,0,0,0-.26-.31L28,18.69a.69.69,0,0,0,0-.11V2.37A2.37,2.37,0,0,0,25.64,0H25a2.37,2.37,0,0,0-2.37,2.37V15.31l-4.86-3.08a.74.74,0,0,0-.79,0L.34,22.81h0a.73.73,0,0,0-.23.24l0,.09a.71.71,0,0,0-.06.23s0,0,0,.06,0,0,0,0a.68.68,0,0,0,0,.08.73.73,0,0,0,.07.21v0A.73.73,0,0,0,.32,24l0,0L17,34.65a.7.7,0,0,0,.68,0l16.67-2.47A.74.74,0,0,0,35,31.5V23.66A.73.73,0,0,0,34.76,23.12Zm-17.34,10L2.75,23.84l14.37-2.45,9.42,6ZM4.23,22.09l12.41-7.88V20ZM27.9,26.5l-.06-.06-9.72-6.17V14.17l14.61,9.27ZM24.15,2.37a.9.9,0,0,1,.9-.9h.59a.9.9,0,0,1,.9.9V17.76l-2.39-1.52ZM20.81,32.75l12.72-8.07v6.19Z"/></svg>