<svg id="Layer_1" data-name="Layer 1" xmlns="http://www.w3.org/2000/svg" width="36" height="36.26" viewBox="0 0 36 36.26"><defs><style>.cls-1{fill:#fff;}</style></defs><title>icon-7</title><path class="cls-1" d="M18,9.76A.74.74,0,0,0,18.74,9V7.14h1.88a.74.74,0,0,0,0-1.47H18.74V3.79a.74.74,0,0,0-1.47,0V5.67H15.38a.74.74,0,1,0,0,1.47h1.88V9A.74.74,0,0,0,18,9.76Z"/><path class="cls-1" d="M10.78,8.5a.74.74,0,0,0,.65-.82l-.49-4.25c.53-.57,3.65-2,7.06-2s6.53,1.39,7.06,2l-.49,4.25a.74.74,0,0,0,.65.82h.08A.74.74,0,0,0,26,7.85l.5-4.4a1.21,1.21,0,0,0-.36-1C25.14,1.31,21.41,0,18,0S10.86,1.31,9.82,2.49a1.22,1.22,0,0,0-.36,1l.5,4.4A.74.74,0,0,0,10.78,8.5Z"/><path class="cls-1" d="M32.1,27.45c-2.86-.5-6.65-1.35-7.89-2.08a1.33,1.33,0,0,0-.38-.11.74.74,0,0,0-.81.55c-1,3.9-2.91,6.32-5,6.32h0c-2.12,0-4-2.42-5-6.32a.84.84,0,0,0-.91-.54.74.74,0,0,0-.28.1c-1.24.74-5,1.59-7.89,2.08C2.1,27.76,0,28.84,0,30.84v.68a.74.74,0,0,0,0,.11l.58,4A.74.74,0,1,0,2,35.42l-.57-3.95v-.63c0-1,1.39-1.71,2.68-1.94A45.81,45.81,0,0,0,11.78,27c1.22,4.14,3.5,6.59,6.19,6.59h0c2.7,0,5-2.45,6.23-6.59a45.71,45.71,0,0,0,7.63,1.9c1.29.22,2.68.93,2.68,1.94v.63L34,35.42a.74.74,0,0,0,.62.83h.11a.74.74,0,0,0,.73-.63l.58-4a.68.68,0,0,0,0-.11v-.68C36,29,34,27.79,32.1,27.45Z"/><path class="cls-1" d="M28.93,34.79h-5a.74.74,0,0,0,0,1.47h5a.74.74,0,0,0,0-1.47Z"/><path class="cls-1" d="M11.22,20.31C12.4,23.75,15,25.87,18,25.87s5.6-2.11,6.78-5.56a2.24,2.24,0,0,0,1.57-1.09,4.63,4.63,0,0,0,.75-2.55c0-1.33-.58-2.26-1.54-2.47,0-.09,0-.2,0-.29s0-.31,0-.47c0-1.64-.3-2.65-1-3.19-.83-.87-2.07-.68-3.69.55l-.53.42a3,3,0,0,1-2.4.89,3,3,0,0,1-2.43-.89l-.53-.42c-1.61-1.23-2.85-1.42-3.69-.55-.65.54-1,1.56-1,3.19,0,.16,0,.32,0,.47s0,.2,0,.29A2.21,2.21,0,0,0,8.9,16.65a4.63,4.63,0,0,0,.74,2.56A2.24,2.24,0,0,0,11.22,20.31Zm-.41-4.68c1.17-.07,1.12-1.27,1.09-1.79,0-.13,0-.27,0-.41,0-1.65.36-2,.43-2.07l.1-.09c.22-.24.86,0,1.75.68l.5.4A4.45,4.45,0,0,0,18,13.58a4.42,4.42,0,0,0,3.33-1.22l.5-.39c.89-.68,1.52-.93,1.75-.68l.1.09c.07.06.43.42.43,2.07,0,.14,0,.28,0,.41,0,.51-.08,1.72,1.09,1.79.42,0,.44.85.43,1a3.23,3.23,0,0,1-.5,1.74c-.09.14-.32.45-.62.46l-.15,0a.74.74,0,0,0-.82.52c-.9,3.11-3,5-5.54,5s-4.64-1.93-5.54-5a.74.74,0,0,0-.71-.53h-.11l-.21,0h0c-.16,0-.37-.17-.56-.46a3.22,3.22,0,0,1-.49-1.74C10.37,16.48,10.38,15.65,10.81,15.63Z"/></svg>