<svg id="Layer_1" data-name="Layer 1" xmlns="http://www.w3.org/2000/svg" width="35" height="29.92" viewBox="0 0 35 29.92"><defs><style>.cls-1{fill:#fff;}</style></defs><title>icon-3</title><path class="cls-1" d="M33.14,5.08H22.81V2.59A2.58,2.58,0,0,0,20.23,0H13.75a2.58,2.58,0,0,0-2.57,2.59V5.08H1.86A1.86,1.86,0,0,0,0,6.93V28.05a1.87,1.87,0,0,0,1.86,1.86H33.14A1.87,1.87,0,0,0,35,28.05V6.95A1.87,1.87,0,0,0,33.14,5.08ZM12.64,2.59a1.12,1.12,0,0,1,1.11-1.12h6.48a1.13,1.13,0,0,1,1.11,1.12V5.08h-8.7ZM33.54,28.05a.41.41,0,0,1-.4.4H1.86a.41.41,0,0,1-.4-.4V6.93a.4.4,0,0,1,.39-.39H33.14a.41.41,0,0,1,.4.4Z"/><path class="cls-1" d="M23.1,14.23H20.77V11.9A1.74,1.74,0,0,0,19,10.16H16a1.74,1.74,0,0,0-1.73,1.73v2.33H11.9A1.74,1.74,0,0,0,10.16,16v3.12a1.7,1.7,0,0,0,1.69,1.69h2.37V23.1A1.74,1.74,0,0,0,16,24.84H19a1.74,1.74,0,0,0,1.73-1.73V20.77H23.1A1.74,1.74,0,0,0,24.84,19V16A1.74,1.74,0,0,0,23.1,14.23ZM23.37,19a.27.27,0,0,1-.27.27H20a.73.73,0,0,0-.73.73V23.1a.27.27,0,0,1-.27.27H16a.27.27,0,0,1-.27-.27V20a.73.73,0,0,0-.73-.73h-3.1a.23.23,0,0,1-.23-.23V16a.27.27,0,0,1,.27-.27H15a.73.73,0,0,0,.73-.73V11.9a.27.27,0,0,1,.27-.27H19a.27.27,0,0,1,.27.27V15a.73.73,0,0,0,.73.73H23.1a.27.27,0,0,1,.27.27Z"/></svg>