<svg id="Layer_1" data-name="Layer 1" xmlns="http://www.w3.org/2000/svg" width="32" height="32.97" viewBox="0 0 32 32.97"><defs><style>.cls-1{fill:#fff;}</style></defs><title>icon-8</title><path class="cls-1" d="M31.12,4.4a30.82,30.82,0,0,1-5.92-.74A16.4,16.4,0,0,0,15,0L9.81.15H7A3.16,3.16,0,0,0,3.89,3.31v.18a3,3,0,0,0,.47,1.59A3.16,3.16,0,0,0,2,8.13v.18a3,3,0,0,0,.61,1.78A3.16,3.16,0,0,0,0,13.2v.18A3,3,0,0,0,2.07,16.2a3.13,3.13,0,0,0-.79,2.06v.18a3,3,0,0,0,3,3h6.23L8.56,24.9a9,9,0,0,0-.2,6A3.79,3.79,0,0,0,11.6,33h0a1.65,1.65,0,0,0,1.65-1.07L15,27.34c3.55-5,8.55-6.41,12.57-7.58a23.26,23.26,0,0,0,4-1.4.91.91,0,0,0,.49-.81L32,5.31A.9.9,0,0,0,31.12,4.4ZM5.34,3.31A1.71,1.71,0,0,1,6.71,1.64a.74.74,0,0,0,.22,0L9.85,1.6h.82a1.71,1.71,0,0,1,0,3.41h-.31A3.11,3.11,0,0,0,10,5H6.52A1.52,1.52,0,0,1,5.34,3.49ZM3.44,8.13a1.71,1.71,0,0,1,1.7-1.7H6.45a2.94,2.94,0,0,0,.41,0h3.45A1.7,1.7,0,0,1,10,9.84H5A1.52,1.52,0,0,1,3.44,8.32Zm-2,5.25V13.2a1.71,1.71,0,0,1,1.7-1.71h7.18a1.71,1.71,0,0,1,0,3.41H3A1.52,1.52,0,0,1,1.46,13.38ZM4.26,20a1.52,1.52,0,0,1-1.52-1.52v-.18a1.71,1.71,0,0,1,1.7-1.71h6a1.71,1.71,0,0,1,1.7,1.71v0c-.07.25-.14.48-.2.75,0,0,0,0,0,0a1.7,1.7,0,0,1-1.5.91Zm26.27-2.75a26.69,26.69,0,0,1-3.41,1.15c-4,1.17-9.54,2.78-13.39,8.19a1.24,1.24,0,0,0-.11.21L11.89,31.4s0,.12-.29.12h0a2.4,2.4,0,0,1-1.88-1.18,7.71,7.71,0,0,1,.11-4.73l2.59-4.68a.72.72,0,0,0,.08-.3,3.13,3.13,0,0,0,1.05-2.07c.89-3.27,2.54-5.12,5-5.62a.73.73,0,1,0-.28-1.43,7.45,7.45,0,0,0-5.47,4.71,3.17,3.17,0,0,0-.57-.54A3.13,3.13,0,0,0,12,10.52,3.12,3.12,0,0,0,12.28,6a3.13,3.13,0,0,0,1-4.5l1.81,0a14.89,14.89,0,0,1,9.16,3.29c.65.57,4.38,1,6.31,1.09Z"/></svg>