<svg id="Layer_1" data-name="Layer 1" xmlns="http://www.w3.org/2000/svg" width="35" height="35" viewBox="0 0 35 35"><defs><style>.cls-1{fill:#fff;}</style></defs><title>icon-4</title><path class="cls-1" d="M35,15.6C35,7,27.15,0,17.5,0S0,7,0,15.6,7.85,31.2,17.5,31.2a19.47,19.47,0,0,0,5.08-.67,24.57,24.57,0,0,0,7.28,4.41.76.76,0,0,0,1-.8l-1-7.57A14.66,14.66,0,0,0,35,15.6ZM28.64,25.7a.76.76,0,0,0-.26.67L29.22,33a22,22,0,0,1-5.93-3.89.76.76,0,0,0-.52-.2.77.77,0,0,0-.21,0,17.93,17.93,0,0,1-5.07.72c-8.81,0-16-6.32-16-14.09S8.69,1.51,17.5,1.51s16,6.32,16,14.08A13.22,13.22,0,0,1,28.64,25.7Z"/><path class="cls-1" d="M17.13,8.2c-2.29,0-4.61,1.38-4.61,3.94a.76.76,0,0,0,1.52,0c0-1.65,1.61-2.41,3.1-2.42h0c1.46,0,3,.71,3.07,2.29,0,1.13-.54,1.56-1.38,2.21a4.65,4.65,0,0,0-2.26,4.09.76.76,0,0,0,1.52,0,3.18,3.18,0,0,1,1.66-2.89,4,4,0,0,0,2-3.44C21.72,9.46,19.41,8.12,17.13,8.2Z"/><path class="cls-1" d="M17.61,22.21h-.19a.77.77,0,0,0-.78.73.76.76,0,0,0,.73.78h.24a.76.76,0,1,0,0-1.51Z"/></svg>