<svg id="Layer_1" data-name="Layer 1" xmlns="http://www.w3.org/2000/svg" width="35" height="30.94" viewBox="0 0 35 30.94"><defs><style>.cls-1{fill:#fff;}</style></defs><title>icon-1</title><path class="cls-1" d="M34.27,0H.73A.73.73,0,0,0,0,.73V18a.73.73,0,0,0,.73.73H34.27A.73.73,0,0,0,35,18V.73A.73.73,0,0,0,34.27,0ZM1.46,7.15a.73.73,0,0,0,.28.06,6.06,6.06,0,0,0,6-5.74H27.94a6.06,6.06,0,0,0,5.6,5.72v4.07a6.06,6.06,0,0,0-5.61,6H7.81a6.07,6.07,0,0,0-6.06-6,.73.73,0,0,0-.28.06ZM33.54,5.7a4.57,4.57,0,0,1-4.12-4.23h4.12ZM6.31,1.46A4.59,4.59,0,0,1,1.75,5.74a.73.73,0,0,0-.28.06V1.46ZM1.46,12.64a.73.73,0,0,0,.28.06,4.6,4.6,0,0,1,4.6,4.58H1.46Zm27.93,4.64a4.59,4.59,0,0,1,4.15-4.54v4.54Z"/><path class="cls-1" d="M17.87,15.71c2.79,0,5.05-2.91,5.05-6.49s-2.27-6.49-5.05-6.49-5.05,2.91-5.05,6.49S15.08,15.71,17.87,15.71Zm0-11.52c2,0,3.59,2.26,3.59,5s-1.61,5-3.59,5-3.59-2.26-3.59-5S15.89,4.19,17.87,4.19Z"/><path class="cls-1" d="M9.21,11.07A1.85,1.85,0,1,0,7.36,9.22,1.85,1.85,0,0,0,9.21,11.07Zm0-2.23a.39.39,0,1,1-.39.39A.39.39,0,0,1,9.21,8.83Z"/><path class="cls-1" d="M26.5,11.07a1.85,1.85,0,1,0-1.85-1.85A1.85,1.85,0,0,0,26.5,11.07Zm0-2.23a.39.39,0,1,1-.39.39A.39.39,0,0,1,26.5,8.83Z"/><path class="cls-1" d="M34.27,21.34H.73a.73.73,0,0,0,0,1.46H34.27a.73.73,0,0,0,0-1.46Z"/><path class="cls-1" d="M34.27,25.41H.73a.73.73,0,1,0,0,1.46H34.27a.73.73,0,1,0,0-1.46Z"/><path class="cls-1" d="M34.27,29.47H.73a.73.73,0,0,0,0,1.46H34.27a.73.73,0,0,0,0-1.46Z"/></svg>